<svg width="24" height="23" viewBox="0 0 24 23" fill="none" xmlns="http://www.w3.org/2000/svg">
<path d="M17.9628 8.51852C17.9628 13.2232 14.149 17.037 9.4443 17.037C4.73965 17.037 0.925781 13.2232 0.925781 8.51852C0.925781 3.81387 4.73965 0 9.4443 0C14.149 0 17.9628 3.81387 17.9628 8.51852ZM2.15838 8.51852C2.15838 12.5424 5.4204 15.8044 9.4443 15.8044C13.4682 15.8044 16.7302 12.5424 16.7302 8.51852C16.7302 4.49462 13.4682 1.2326 9.4443 1.2326C5.4204 1.2326 2.15838 4.49462 2.15838 8.51852Z" fill="black"/>
<path d="M16.3044 20.0474L14.9073 14.8333L20.1213 16.2304L16.3044 20.0474Z" fill="white" stroke="black" stroke-width="1.1"/>
</svg>
